<?xml version="1.0" encoding="utf-8"?>
<!-- Generator: Adobe Illustrator 23.0.1, SVG Export Plug-In . SVG Version: 6.00 Build 0)  -->
<svg version="1.1" id="Layer_1" xmlns="http://www.w3.org/2000/svg" xmlns:xlink="http://www.w3.org/1999/xlink" x="0px" y="0px"
	 viewBox="0 0 541 508" style="enable-background:new 0 0 541 508;" xml:space="preserve">
<style type="text/css">
	.st0{opacity:4.000000e-02;fill:#FFFCF4;enable-background:new    ;}
	.st1{fill:#505056;}
</style>
<circle class="st0" cx="274" cy="254" r="254"/>
<circle class="st0" cx="269.4" cy="252.1" r="203.9"/>
<path class="st1" d="M158.2,38.8c-0.4-0.9-1-1.7-1.7-2.4c-1.6-1.5-3.7-2.4-5.8-2.4h-3l-3.7-7.3c-0.2-0.4-0.5-0.7-0.8-0.9
	c-0.3-0.2-0.7-0.3-1.1-0.3h-10.2c-0.4,0-0.8,0.1-1.1,0.3c-0.3,0.2-0.6,0.5-0.8,0.9l-3.7,7.3h-0.6c-1,0-1.9,0.4-2.6,1.1
	c-0.7,0.7-1.1,1.7-1.1,2.6v5.9c0,0.6,0.2,1.1,0.6,1.5c0.4,0.4,0.9,0.6,1.5,0.6h1.8c0.3,0.9,0.9,1.8,1.7,2.4s1.8,0.9,2.7,0.9
	c1,0,2-0.3,2.7-0.9c0.8-0.6,1.4-1.4,1.7-2.4h9.2c0.3,0.9,0.9,1.8,1.7,2.4c0.8,0.6,1.8,0.9,2.7,0.9c1,0,2-0.3,2.7-0.9
	s1.4-1.4,1.7-2.4h4.3c0.6,0,1.1-0.2,1.5-0.6c0.4-0.4,0.6-0.9,0.6-1.5v-1.2C159,41.2,158.7,40,158.2,38.8z M155.8,37.4
	c0.3,0.3,0.6,0.7,0.9,1.1h-2.6c-0.2,0-0.4-0.1-0.5-0.2c-0.1-0.1-0.2-0.3-0.2-0.5v-0.4H155.8z M141.2,29l2.6,5.1h-6.4V29H141.2z
	 M136.3,34.1h-6.4l2.6-5.1h3.8V34.1z M130.9,27.3c0.1-0.2,0.2-0.3,0.4-0.4c0.2-0.1,0.4-0.2,0.5-0.2H142c0.2,0,0.4,0.1,0.5,0.2
	c0.2,0.1,0.3,0.2,0.4,0.4l3.5,6.8h-1.3l-3-5.9c0-0.1-0.1-0.2-0.2-0.2c-0.1-0.1-0.2-0.1-0.3-0.1h-9.4c-0.1,0-0.2,0-0.3,0.1
	c-0.1,0.1-0.2,0.1-0.2,0.2l-3,5.9h-1.3L130.9,27.3z M123.9,44.7c-0.3,0-0.5-0.1-0.7-0.3c-0.2-0.2-0.3-0.5-0.3-0.7v-5.9
	c0-0.7,0.3-1.4,0.8-1.9c0.5-0.5,1.2-0.8,1.9-0.8h0.6v7.1c-0.4,0.7-0.6,1.6-0.6,2.5H123.9z M130.1,48c-0.8,0-1.6-0.3-2.2-0.8
	c-0.6-0.5-1-1.2-1.2-2v0c-0.1-0.7,0-1.4,0.3-2.1c0.3-0.7,0.8-1.2,1.4-1.6c0.6-0.4,1.3-0.5,2-0.5c0.7,0.1,1.4,0.3,1.9,0.8
	c0.6,0.5,0.9,1.1,1.1,1.8c0.2,0.7,0.2,1.4-0.1,2.1c-0.2,0.7-0.7,1.3-1.3,1.7C131.6,47.8,130.9,48,130.1,48L130.1,48z M130.1,39.9
	c-1,0-2.1,0.4-2.9,1v-5.8h9v9.5h-1.6c0-0.1,0-0.1,0-0.2c0-1.2-0.5-2.4-1.3-3.3C132.5,40.4,131.4,39.9,130.1,39.9L130.1,39.9z
	 M137.4,44.7v-9.5h9.3v5c-0.9,0.3-1.7,0.9-2.3,1.7c-0.6,0.8-0.9,1.7-0.9,2.7c0,0.1,0,0.1,0,0.2H137.4z M148.2,48
	c-0.7,0-1.4-0.2-1.9-0.6c-0.6-0.4-1-0.9-1.3-1.6c-0.3-0.6-0.3-1.3-0.2-2c0.1-0.7,0.5-1.3,1-1.8c0.5-0.5,1.1-0.8,1.8-1
	c0.7-0.1,1.4-0.1,2,0.2c0.6,0.3,1.2,0.7,1.6,1.3c0.4,0.6,0.6,1.2,0.6,1.9c0,0.9-0.4,1.8-1,2.5C150,47.7,149.1,48,148.2,48z
	 M157.9,43.7c0,0.3-0.1,0.5-0.3,0.7c-0.2,0.2-0.5,0.3-0.7,0.3h-4.1c0-0.1,0-0.1,0-0.2c0-1.2-0.5-2.4-1.3-3.3c-0.9-0.9-2-1.3-3.3-1.3
	c-0.1,0-0.2,0-0.4,0v-4.8h2.8c1.3,0,2.7,0.4,3.8,1.1h-1.6c-0.1,0-0.1,0-0.2,0c-0.1,0-0.1,0.1-0.2,0.1c-0.1,0.1-0.1,0.1-0.1,0.2
	c0,0.1,0,0.1,0,0.2v0.9c0,0.5,0.2,1,0.5,1.3c0.4,0.4,0.8,0.5,1.3,0.5h3.2c0.4,0.9,0.6,1.9,0.6,2.9V43.7z"/>
<path class="st1" d="M130.1,42.3c-0.4,0-0.9,0.1-1.2,0.4c-0.4,0.2-0.7,0.6-0.8,1c-0.2,0.4-0.2,0.9-0.1,1.3c0.1,0.4,0.3,0.8,0.6,1.1
	s0.7,0.5,1.1,0.6c0.4,0.1,0.9,0,1.3-0.1c0.4-0.2,0.8-0.5,1-0.8c0.2-0.4,0.4-0.8,0.4-1.2c0-0.6-0.2-1.2-0.7-1.6
	C131.3,42.5,130.7,42.3,130.1,42.3z M130.1,45.7c-0.2,0-0.4-0.1-0.6-0.2c-0.2-0.1-0.3-0.3-0.4-0.5c-0.1-0.2-0.1-0.4-0.1-0.7
	c0-0.2,0.1-0.4,0.3-0.6c0.2-0.2,0.4-0.3,0.6-0.3c0.2,0,0.4,0,0.7,0.1c0.2,0.1,0.4,0.2,0.5,0.4c0.1,0.2,0.2,0.4,0.2,0.6
	c0,0.3-0.1,0.6-0.3,0.8C130.7,45.5,130.4,45.7,130.1,45.7z"/>
<path class="st1" d="M148.2,42.3c-0.4,0-0.9,0.1-1.2,0.4c-0.4,0.2-0.7,0.6-0.8,1c-0.2,0.4-0.2,0.9-0.1,1.3c0.1,0.4,0.3,0.8,0.6,1.1
	c0.3,0.3,0.7,0.5,1.1,0.6c0.4,0.1,0.9,0,1.3-0.1c0.4-0.2,0.8-0.5,1-0.8c0.2-0.4,0.4-0.8,0.4-1.2c0-0.6-0.2-1.2-0.7-1.6
	S148.8,42.3,148.2,42.3z M148.2,45.7c-0.2,0-0.4-0.1-0.6-0.2c-0.2-0.1-0.3-0.3-0.4-0.5c-0.1-0.2-0.1-0.4-0.1-0.7
	c0-0.2,0.2-0.4,0.3-0.6c0.2-0.2,0.4-0.3,0.6-0.3c0.2,0,0.4,0,0.7,0.1c0.2,0.1,0.4,0.2,0.5,0.4c0.1,0.2,0.2,0.4,0.2,0.6
	c0,0.3-0.1,0.6-0.3,0.8C148.8,45.5,148.5,45.7,148.2,45.7z"/>
<path class="st1" d="M141.2,37.4h-1.9c-0.1,0-0.3,0.1-0.4,0.2c-0.1,0.1-0.2,0.2-0.2,0.4s0.1,0.3,0.2,0.4c0.1,0.1,0.2,0.2,0.4,0.2
	h1.9c0.1,0,0.3-0.1,0.4-0.2c0.1-0.1,0.2-0.2,0.2-0.4s-0.1-0.3-0.2-0.4C141.4,37.5,141.3,37.4,141.2,37.4z"/>
<path class="st1" d="M423,41.5c0-0.1,0-0.1,0-0.2c0-0.1,0-0.1-0.1-0.2c-0.6-0.9-1.4-1.7-2.3-2.3c-0.9-0.6-2-0.9-3.1-0.9l-4.3-6.8
	h1.8c0.1,0,0.3-0.1,0.4-0.2c0.1-0.1,0.2-0.2,0.2-0.4v-2.8c0-0.2-0.1-0.5-0.2-0.7c-0.1-0.2-0.3-0.4-0.4-0.5c-0.2-0.1-0.4-0.2-0.6-0.3
	c-0.2,0-0.5,0-0.7,0l-3.5,1.1l-0.7-0.9v-1.1c0-0.4-0.2-0.8-0.4-1.1c-0.3-0.3-0.7-0.4-1.1-0.4h-2.2c-0.4,0-0.8,0.2-1.1,0.4
	c-0.3,0.3-0.4,0.7-0.4,1.1v0.3c0,0.4,0.2,0.8,0.4,1.1c0.3,0.3,0.7,0.4,1.1,0.4h2.9l0.4,0.5c-0.1,0-0.2,0.1-0.3,0.2
	c-0.1,0.1-0.1,0.2-0.1,0.3v1.9l-1.3,0.5c-0.1,0-0.2,0.1-0.3,0.3c-0.1,0.1-0.1,0.2-0.1,0.4c0,0.1,0.1,0.2,0.2,0.3
	c0.1,0.1,0.2,0.1,0.4,0.1c0.2,0,0.2,0,1.7-0.7h0.2c1.4,4.6,1.3,8.4-0.1,10.7c-0.1,0.1-0.2,0.3-0.4,0.3c-0.2,0.1-0.3,0.1-0.5,0.1h-2
	c-0.2,0-0.4-0.1-0.6-0.2c-2.4-1.6-2.5-4.1-0.5-8.1c0-0.1,0.1-0.2,0.1-0.3c0-0.8-0.3-1.6-0.9-2.1c-0.6-0.6-1.3-0.9-2.1-0.9h-9.9
	c-0.1,0-0.3,0.1-0.4,0.2c-0.1,0.1-0.2,0.2-0.2,0.4c0,0.4,0.1,0.9,0.3,1.3c0.2,0.4,0.5,0.8,0.8,1c-2.1,0.6-3.9,1.9-5.2,3.6
	c-1.3,1.8-2,3.9-2,6.1l0,2.1c0,0.1,0.1,0.3,0.2,0.4c0.1,0.1,0.2,0.2,0.4,0.2h3.1c0.1,1.4,0.8,2.6,1.8,3.5c1,0.9,2.3,1.4,3.7,1.4
	c1.4,0,2.7-0.5,3.7-1.4c1-0.9,1.6-2.2,1.8-3.5H412c0.1,0.8,0.4,1.6,0.8,2.3c0.4,0.7,1,1.3,1.7,1.8c0.7,0.4,1.5,0.7,2.3,0.8
	s1.7,0,2.5-0.3c0.8-0.3,1.5-0.8,2.1-1.4s1-1.3,1.3-2.1c0.3-0.8,0.3-1.6,0.2-2.5c-0.1-0.8-0.4-1.6-0.9-2.3c0.3-0.2,0.6-0.4,0.8-0.5
	c0.1,0,0.1-0.1,0.2-0.2S423,41.5,423,41.5z M421.7,41.2c-0.9,0.6-1,0.7-1.2,0.7c-0.1,0-0.2,0-0.3,0c-0.1,0-0.2-0.1-0.3-0.1
	c-0.7-0.5-1.6-0.8-2.5-0.9c-2-0.1-3.8,1.2-4.2,3.5c0,0.1-0.1,0.2-0.1,0.3s-0.2,0.1-0.3,0.2c-0.2,0-0.4,0-0.6,0
	c0-1.8,0.6-3.3,1.5-4.4c0.4-0.5,1-0.8,1.6-1.1c0.6-0.3,1.2-0.4,1.9-0.4c0.9,0,1.7,0.2,2.5,0.6C420.5,39.9,421.2,40.5,421.7,41.2z
	 M413.1,27.6l0.8-0.3c0.1,0,0.1,0,0.2,0c0.1,0,0.1,0,0.2,0.1c0,0,0.1,0.1,0.1,0.1c0,0.1,0,0.1,0,0.2V30h-1.4V27.6z M411.9,30h-2.3
	v-1.3l2.3-0.7L411.9,30z M408.2,26.1h-2.6c-0.1,0-0.2,0-0.3-0.1c-0.1-0.1-0.1-0.2-0.1-0.3v-0.3c0-0.1,0-0.2,0.1-0.3
	c0.1-0.1,0.2-0.1,0.3-0.1h2.2c0.1,0,0.2,0,0.3,0.1c0.1,0.1,0.1,0.2,0.1,0.3V26.1z M402.4,31.8c0.4,0,0.8,0.1,1.2,0.4
	c0.3,0.2,0.6,0.6,0.7,1h-9.3c-0.4,0-0.8-0.1-1.2-0.4c-0.3-0.2-0.6-0.6-0.7-1H402.4z M386.9,43.3c0-1.2,0.2-2.3,0.7-3.4
	s1.1-2.1,1.9-2.9c0.8-0.8,1.8-1.5,2.9-1.9c1.1-0.5,2.3-0.7,3.4-0.7h8.2c-1.3,2.8-2.3,6.4,1.2,8.7c0.4,0.2,0.8,0.4,1.2,0.4h2
	c0.4,0,0.7-0.1,1-0.3c0.3-0.2,0.6-0.4,0.8-0.7c1.6-2.6,1.8-6.5,0.4-11.3h1.3l4.4,6.9c-1.3,0.2-2.4,0.8-3.3,1.8
	c-1.2,1.3-1.8,3-1.8,5.1h-8.4c-0.1-1.9-1-3.8-2.4-5.1c-1.4-1.3-3.3-2.1-5.2-2.1s-3.8,0.7-5.2,2.1c-1.4,1.3-2.3,3.1-2.4,5.1h-0.4
	L386.9,43.3z M389.5,44.9h-1c0.1-1.6,0.9-3.2,2.1-4.3c1.2-1.1,2.8-1.7,4.5-1.7s3.2,0.6,4.5,1.7c1.2,1.1,2,2.6,2.1,4.3h-1.1
	c-0.1-1.3-0.8-2.6-1.8-3.5c-1-0.9-2.3-1.4-3.7-1.4c-1.4,0-2.7,0.5-3.7,1.4C390.3,42.3,389.6,43.5,389.5,44.9z M394.9,49.8
	c-1.1,0-2.2-0.4-3-1.2c-0.8-0.8-1.3-1.8-1.4-2.9c-0.2-2.2,1.7-4.6,4.3-4.6c1.2,0,2.3,0.5,3.1,1.3c0.8,0.8,1.3,1.9,1.3,3.1
	c0,1.2-0.5,2.3-1.3,3.1C397.2,49.3,396.1,49.8,394.9,49.8z M417.5,49.8c-1.1,0-2.1-0.4-2.9-1.1c-0.8-0.7-1.3-1.7-1.4-2.8
	c0,0,0,0,0,0c0.3-0.1,0.6-0.3,0.8-0.5c0.2-0.2,0.4-0.5,0.4-0.8c0.3-1.5,1.3-2.6,2.9-2.5c0.7,0.1,1.4,0.3,2,0.7
	c0.3,0.2,0.6,0.3,0.9,0.3c0.3,0,0.6,0,0.9-0.1c0.5,0.7,0.7,1.4,0.8,2.2c0.1,0.8-0.1,1.6-0.5,2.3s-0.9,1.3-1.6,1.7
	C419.1,49.6,418.3,49.8,417.5,49.8L417.5,49.8z"/>
<path class="st1" d="M417.3,43.2c-0.4,0-0.9,0.2-1.2,0.5c-0.4,0.3-0.6,0.6-0.8,1.1c-0.1,0.4-0.2,0.9-0.1,1.3
	c0.1,0.4,0.3,0.8,0.7,1.1c0.3,0.3,0.7,0.5,1.2,0.6c0.4,0.1,0.9,0,1.3-0.2c0.4-0.2,0.8-0.5,1-0.8c0.2-0.4,0.4-0.8,0.4-1.3
	C419.8,44,418.4,43,417.3,43.2z M418.6,45.5c0,0.2-0.1,0.5-0.2,0.6c-0.1,0.2-0.3,0.3-0.5,0.4c-0.2,0.1-0.4,0.1-0.7,0.1
	c-0.2,0-0.4-0.2-0.6-0.3c-0.2-0.2-0.3-0.4-0.3-0.6c0-0.2,0-0.5,0.1-0.7c0.1-0.2,0.2-0.4,0.4-0.5c0.2-0.1,0.4-0.2,0.6-0.2
	c0.2,0,0.3,0,0.4,0.1c0.1,0.1,0.3,0.1,0.4,0.3c0.1,0.1,0.2,0.2,0.3,0.4C418.6,45.1,418.6,45.3,418.6,45.5z"/>
<path class="st1" d="M394.9,43.2c-0.5,0-0.9,0.1-1.3,0.4s-0.7,0.6-0.8,1c-0.2,0.4-0.2,0.9-0.1,1.3c0.1,0.4,0.3,0.8,0.6,1.2
	c0.3,0.3,0.7,0.5,1.2,0.6c0.4,0.1,0.9,0,1.3-0.1s0.8-0.5,1-0.8c0.3-0.4,0.4-0.8,0.4-1.3v0c0-0.6-0.2-1.2-0.7-1.6
	C396.1,43.4,395.5,43.2,394.9,43.2z M396.1,45.5c0,0.2-0.1,0.5-0.2,0.6c-0.1,0.2-0.3,0.3-0.5,0.4s-0.4,0.1-0.7,0.1
	c-0.2,0-0.4-0.2-0.6-0.3c-0.2-0.2-0.3-0.4-0.3-0.6c0-0.2,0-0.5,0.1-0.7c0.1-0.2,0.2-0.4,0.4-0.5c0.2-0.1,0.4-0.2,0.6-0.2
	c0.3,0,0.6,0.1,0.8,0.3C396,44.8,396.1,45.1,396.1,45.5z"/>
<path class="st1" d="M39,252.8l-1.3-5.7c-0.1-0.5-0.3-0.9-0.6-1.3h0.3c0.4,0,0.9-0.2,1.2-0.5c0.3-0.3,0.5-0.7,0.5-1.2
	s-0.2-0.9-0.5-1.2c-0.3-0.3-0.7-0.5-1.2-0.5H4.5c-0.7,0-1.4,0.3-2,0.8c-0.5,0.5-0.8,1.2-0.8,2c0,0,0,0,0,0v15.2
	c0,0.6,0.2,1.1,0.6,1.5c0.4,0.4,0.9,0.6,1.5,0.6h2.4c0.1,1,0.6,2,1.4,2.7c0.8,0.7,1.8,1.1,2.8,1.1c1,0,2-0.4,2.8-1.1
	c0.8-0.7,1.3-1.6,1.4-2.7H26c0.1,1,0.6,2,1.4,2.7c0.8,0.7,1.8,1.1,2.8,1.1c1,0,2-0.4,2.8-1.1c0.8-0.7,1.3-1.6,1.4-2.7h2.4
	c0.6,0,1.1-0.2,1.5-0.6c0.4-0.4,0.6-1,0.6-1.5v-7.1C39,253.1,39,253,39,252.8z M4.5,243.6h32.8c0.1,0,0.3,0.1,0.4,0.2
	c0.1,0.1,0.2,0.2,0.2,0.4s-0.1,0.3-0.2,0.4c-0.1,0.1-0.2,0.2-0.4,0.2H3c0.1-0.3,0.3-0.6,0.6-0.8C3.9,243.7,4.2,243.6,4.5,243.6
	L4.5,243.6z M10.5,265.2c-0.8,0-1.6-0.3-2.2-0.9c-0.6-0.6-0.9-1.4-0.9-2.2v0v0c0-0.8,0.3-1.7,0.9-2.2c0.6-0.6,1.4-0.9,2.2-0.9
	c0.8,0,1.7,0.3,2.2,0.9c0.6,0.6,0.9,1.4,0.9,2.2v0c0,0.8-0.3,1.6-0.9,2.2C12.2,264.9,11.4,265.2,10.5,265.2z M30.2,265.2
	c-0.8,0-1.6-0.3-2.2-0.9c-0.6-0.6-0.9-1.4-0.9-2.2v0v0c0-0.8,0.3-1.6,0.9-2.2c0.6-0.6,1.4-0.9,2.2-0.9c0.8,0,1.6,0.3,2.2,0.9
	c0.6,0.6,0.9,1.4,0.9,2.2v0c0,0.8-0.3,1.6-0.9,2.2C31.9,264.9,31.1,265.2,30.2,265.2z M37.9,260.4c0,0.3-0.1,0.5-0.3,0.7
	c-0.2,0.2-0.5,0.3-0.7,0.3h-2.4c-0.1-1-0.6-2-1.4-2.7c-0.8-0.7-1.8-1.1-2.8-1.1c-1,0-2,0.4-2.8,1.1c-0.8,0.7-1.3,1.6-1.4,2.7H14.8
	c-0.1-1-0.6-2-1.4-2.7c-0.8-0.7-1.8-1.1-2.8-1.1c-1,0-2,0.4-2.8,1.1c-0.8,0.7-1.3,1.6-1.4,2.7H3.9c-0.3,0-0.5-0.1-0.7-0.3
	c-0.2-0.2-0.3-0.5-0.3-0.7v-14.6h31.8c0.5,0,0.9,0.2,1.2,0.4s0.6,0.7,0.7,1.1l1.3,5.7c0,0.1,0,0.1,0,0.2L37.9,260.4z"/>
<path class="st1" d="M10.5,260c-0.4,0-0.8,0.1-1.1,0.3s-0.6,0.5-0.8,0.9c-0.2,0.4-0.2,0.8-0.1,1.2c0.1,0.4,0.3,0.8,0.6,1.1
	s0.7,0.5,1.1,0.6c0.4,0.1,0.8,0,1.2-0.1s0.7-0.4,0.9-0.8c0.2-0.3,0.3-0.7,0.3-1.1c0-0.5-0.2-1.1-0.6-1.5S11.1,260,10.5,260z
	 M10.5,263c-0.2,0-0.4-0.1-0.5-0.2c-0.2-0.1-0.3-0.3-0.3-0.4c-0.1-0.2-0.1-0.4-0.1-0.5c0-0.2,0.1-0.4,0.3-0.5
	c0.1-0.1,0.3-0.2,0.5-0.3c0.2,0,0.4,0,0.5,0.1c0.2,0.1,0.3,0.2,0.4,0.3c0.1,0.2,0.2,0.3,0.2,0.5c0,0.3-0.1,0.5-0.3,0.7
	C11,262.9,10.8,263,10.5,263z"/>
<path class="st1" d="M30.2,260c-0.4,0-0.8,0.1-1.1,0.3c-0.3,0.2-0.6,0.5-0.8,0.9c-0.2,0.4-0.2,0.8-0.1,1.2c0.1,0.4,0.3,0.8,0.6,1.1
	s0.7,0.5,1.1,0.6c0.4,0.1,0.8,0,1.2-0.1c0.4-0.2,0.7-0.4,0.9-0.8c0.2-0.3,0.3-0.7,0.3-1.1c0-0.5-0.2-1.1-0.6-1.5
	C31.3,260.2,30.8,260,30.2,260z M30.2,263c-0.2,0-0.4-0.1-0.5-0.2c-0.2-0.1-0.3-0.3-0.3-0.4c-0.1-0.2-0.1-0.4-0.1-0.5
	c0-0.2,0.1-0.4,0.3-0.5c0.1-0.1,0.3-0.2,0.5-0.3c0.2,0,0.4,0,0.5,0.1c0.2,0.1,0.3,0.2,0.4,0.3c0.1,0.2,0.2,0.3,0.2,0.5
	c0,0.3-0.1,0.5-0.3,0.7S30.5,263,30.2,263z"/>
<path class="st1" d="M35.5,247.6c0-0.2-0.1-0.4-0.3-0.5c-0.2-0.1-0.3-0.2-0.5-0.2H4.5c-0.1,0-0.3,0.1-0.4,0.2
	C4,247.2,4,247.3,4,247.5v5.9c0,0.1,0.1,0.3,0.2,0.4c0.1,0.1,0.2,0.2,0.4,0.2h31.7c0.1,0,0.2,0,0.2-0.1c0.1,0,0.1-0.1,0.2-0.2
	c0.1-0.1,0.1-0.1,0.1-0.2c0-0.1,0-0.2,0-0.2L35.5,247.6z M17.3,248h5v4.8h-5V248z M16.1,252.8h-5V248h5L16.1,252.8z M23.3,248h5v4.8
	h-5V248z M5.1,248h5v4.8h-5V248z M29.4,252.8V248h5l1.1,4.8H29.4z"/>
<path class="st1" d="M29.7,255.1h-0.9c-0.1,0-0.3,0.1-0.4,0.2c-0.1,0.1-0.2,0.2-0.2,0.4s0.1,0.3,0.2,0.4c0.1,0.1,0.2,0.2,0.4,0.2
	h0.9c0.1,0,0.3-0.1,0.4-0.2c0.1-0.1,0.2-0.2,0.2-0.4s-0.1-0.3-0.2-0.4C30,255.2,29.9,255.1,29.7,255.1z"/>
<path class="st1" d="M508,260.8c-1.3,0-2.3,1.1-2.3,2.3c0,1.3,1.1,2.3,2.3,2.3c1.3,0,2.3-1.1,2.3-2.3
	C510.3,261.8,509.3,260.8,508,260.8z M508,264.3c-0.7,0-1.2-0.5-1.2-1.2c0-0.7,0.5-1.2,1.2-1.2c0.7,0,1.2,0.5,1.2,1.2
	C509.2,263.8,508.7,264.3,508,264.3z"/>
<path class="st1" d="M534.4,258.6c0.2-1.3,0-2.3-0.3-3.4c-0.7-2.6-2.2-5.5-3.3-7.5c-0.7-1.2-1.2-2.1-1.4-2.4c-0.1-2.4-2-4.2-4.4-4.2
	h-19.2c-2.1,0-3.7,1.7-3.8,3.8v15.5c0,0.8,0.7,1.5,1.5,1.5h0.1c-0.7,2.4,0.7,4.9,3.1,5.6c2.4,0.7,4.9-0.7,5.6-3.1
	c0.2-0.8,0.2-1.7,0-2.5h0.7c0.3,1.3,1.4,2.2,2.7,2.2h14.1c0.5,2.5,3,4,5.4,3.4c2.5-0.6,4-3,3.4-5.4
	C538.2,260.1,536.5,258.6,534.4,258.6z M530.4,260.8h-2.7c0.9-1.6,1.2-3.7,1-6.8c-0.2-2.5-0.8-5.3-1.4-8h1.3
	c0.2,0.3,0.5,0.8,0.8,1.4h-0.5c-0.4,0-0.6,0.4-0.5,0.7l1.8,7.3c0.1,0.3,0.3,0.4,0.5,0.4h2.4c0,0.1,0.1,0.3,0.1,0.4
	c0.2,0.8,0.2,1.6,0.1,2.4C532.1,259,531,259.7,530.4,260.8z M524.5,260.8v-1.6c0-1.4-1.1-2.5-2.5-2.5h-2.1V246h6.2
	c0.5,2.5,1.1,5,1.3,7.2l-2-0.6c-0.3-0.1-0.6,0.1-0.7,0.4c-0.1,0.3,0.1,0.6,0.3,0.7c0,0,0,0,0,0l2.5,0.8c0.2,3-0.2,5-1.3,6.3
	L524.5,260.8z M514.1,260.8v-3.6c0-2.1-1.7-3.7-3.8-3.8h-0.9V246h6.7v14.7H514.1z M517.2,260.8V246h1.6v11.2c0,0.3,0.3,0.6,0.6,0.6
	h2.7c0.7,0,1.3,0.6,1.4,1.4v1.5H517.2z M532.8,254.8h-1.7l-1.6-6.2h0.4C531.2,250.8,532,252.5,532.8,254.8z M505.7,242.2H525
	c1.6,0,2.9,1.1,3.2,2.7h-19.3c-0.3,0-0.5,0.3-0.6,0.5v8h-5.3v-8.6C503.1,243.4,504.3,242.2,505.7,242.2z M508,266.6
	c-1.9,0-3.4-1.5-3.4-3.4c0-1.9,1.5-3.4,3.4-3.4c1.9,0,3.4,1.5,3.4,3.4C511.4,265,509.9,266.6,508,266.6z M508,258.6
	c-1.6,0-3.1,0.8-3.9,2.2h-0.6c-0.2,0-0.4-0.2-0.4-0.4v-5.8h7.3c1.5,0,2.6,1.2,2.6,2.6v3.5h-1.1C511.1,259.4,509.6,258.6,508,258.6z
	 M514.2,261.9h15.7c-0.1,0.4-0.2,0.7-0.2,1.1h-14C515,263,514.4,262.6,514.2,261.9z M534.3,266.6c-1.9,0-3.4-1.5-3.4-3.4
	c0-1.9,1.5-3.4,3.4-3.4c1.9,0,3.4,1.5,3.4,3.4C537.7,265,536.2,266.6,534.3,266.6z"/>
<path class="st1" d="M534.3,260.8c-1.3,0-2.3,1.1-2.3,2.3c0,1.3,1.1,2.3,2.3,2.3c1.3,0,2.3-1.1,2.3-2.3
	C536.6,261.8,535.5,260.8,534.3,260.8z M534.3,264.3c-0.7,0-1.2-0.5-1.2-1.2c0-0.7,0.5-1.2,1.2-1.2s1.2,0.5,1.2,1.2
	C535.5,263.8,534.9,264.3,534.3,264.3z"/>
<path class="st1" d="M146.4,471.6h7.1c0.1,0,0.2,0,0.3-0.1c0.1-0.1,0.2-0.1,0.2-0.2c0-0.1,0.1-0.2,0-0.3c0-0.1-0.1-0.2-0.1-0.3
	l-4.3-5.2c-0.1-0.1-0.1-0.1-0.2-0.1c-0.1,0-0.2-0.1-0.2-0.1h-2.8c-0.1,0-0.1,0-0.2,0c-0.1,0-0.1,0.1-0.2,0.1
	c-0.1,0.1-0.1,0.1-0.1,0.2s0,0.1,0,0.2v5.2c0,0.1,0.1,0.3,0.2,0.4C146.1,471.5,146.2,471.6,146.4,471.6z M146.9,466.4h2l3.4,4.1
	h-5.4V466.4z"/>
<path class="st1" d="M130.4,467.9h2.2v2.2c0,0.1,0.1,0.3,0.2,0.4c0.1,0.1,0.2,0.2,0.4,0.2h2.2c0.1,0,0.3-0.1,0.4-0.2
	c0.1-0.1,0.2-0.2,0.2-0.4v-2.2h2.2c0.1,0,0.3-0.1,0.4-0.2c0.1-0.1,0.2-0.2,0.2-0.4v-2.2c0-0.1-0.1-0.3-0.2-0.4
	c-0.1-0.1-0.2-0.2-0.4-0.2h-2.2v-2.2c0-0.1-0.1-0.3-0.2-0.4c-0.1-0.1-0.2-0.2-0.4-0.2h-2.2c-0.1,0-0.3,0.1-0.4,0.2
	c-0.1,0.1-0.2,0.2-0.2,0.4v2.2h-2.2c-0.1,0-0.3,0.1-0.4,0.2c-0.1,0.1-0.2,0.2-0.2,0.4v2.2c0,0.1,0.1,0.3,0.2,0.4
	C130.1,467.8,130.3,467.9,130.4,467.9z M131,465.7h2.2c0.1,0,0.3-0.1,0.4-0.2c0.1-0.1,0.2-0.2,0.2-0.4v-2.2h1.1v2.2
	c0,0.1,0.1,0.3,0.2,0.4c0.1,0.1,0.2,0.2,0.4,0.2h2.2v1.1h-2.2c-0.1,0-0.3,0.1-0.4,0.2c-0.1,0.1-0.2,0.2-0.2,0.4v2.2h-1.1v-2.2
	c0-0.1-0.1-0.3-0.2-0.4c-0.1-0.1-0.2-0.2-0.4-0.2H131V465.7z"/>
<path class="st1" d="M157.2,477.8v-5.9c0-0.6-0.2-1.2-0.6-1.6L151,464c-0.4-0.4-0.8-0.7-1.4-0.8v-1.3c0-0.4-0.2-0.9-0.5-1.2
	c-0.3-0.3-0.7-0.5-1.2-0.5c-0.4,0-0.9,0.2-1.2,0.5c-0.3,0.3-0.5,0.7-0.5,1.2v1.2H145v-2.3c0-0.6-0.2-1.1-0.6-1.5
	c-0.4-0.4-0.9-0.6-1.5-0.6h-17.1c-0.6,0-1.1,0.2-1.5,0.6c-0.4,0.4-0.6,1-0.6,1.5v17c-0.4,0-0.7,0.2-1,0.5c-0.3,0.3-0.4,0.6-0.4,1
	v1.3c0,0.1,0.1,0.3,0.2,0.4c0.1,0.1,0.2,0.2,0.4,0.2h4.4c0.3,0.9,0.9,1.6,1.7,2.1c0.8,0.5,1.7,0.8,2.6,0.8c0.9,0,1.8-0.3,2.6-0.8
	c0.8-0.5,1.4-1.3,1.7-2.1h10.6c0.3,0.9,0.9,1.6,1.7,2.1c0.8,0.5,1.7,0.8,2.6,0.8c0.9,0,1.8-0.3,2.6-0.8c0.8-0.5,1.4-1.3,1.7-2.1h3.3
	c0.1,0,0.3-0.1,0.4-0.2c0.1-0.1,0.2-0.2,0.2-0.4v-1.3c0-0.4-0.2-0.8-0.4-1.1C158,478,157.6,477.8,157.2,477.8z M154.8,477.8
	c-0.3-0.7-0.7-1.3-1.3-1.8h2.5v1.8H154.8z M146.2,477.8H145V476h2.5C146.9,476.5,146.5,477.1,146.2,477.8z M135.6,477.8
	c-0.3-0.7-0.7-1.3-1.3-1.8h9.5v1.8H135.6z M124.6,474.9v-1.1h19.2v1.1H124.6z M127,477.8h-2.4V476h3.7
	C127.8,476.5,127.3,477.1,127,477.8L127,477.8z M156.1,474.9H145v-1.1h11.1V474.9z M147.4,461.9c0-0.1,0.1-0.3,0.2-0.4
	c0.1-0.1,0.2-0.2,0.4-0.2s0.3,0.1,0.4,0.2c0.1,0.1,0.2,0.2,0.2,0.4v1.2h-1.1V461.9z M146.9,464.3
	C146.9,464.3,146.9,464.3,146.9,464.3h2.2c0,0,0,0,0,0h0c0.2,0,0.4,0,0.6,0.1c0.2,0.1,0.3,0.2,0.5,0.3l5.6,6.3
	c0.2,0.2,0.3,0.6,0.3,0.9v0.7H145v-8.4H146.9z M125.7,459.8h17.1c0.3,0,0.5,0.1,0.7,0.3c0.2,0.2,0.3,0.5,0.3,0.7v11.8h-19.2v-11.8
	c0-0.3,0.1-0.5,0.3-0.7C125.1,459.9,125.4,459.8,125.7,459.8z M123.2,480v-0.7c0-0.1,0-0.2,0.1-0.3c0.1-0.1,0.2-0.1,0.3-0.1h3.1
	c-0.1,0.4-0.1,0.7,0,1.1H123.2z M131.3,483c-0.9,0-1.8-0.4-2.4-1c-0.6-0.6-1-1.5-1-2.4c0-0.9,0.3-1.8,1-2.5s1.5-1,2.4-1.1h0.1
	c0.9,0,1.8,0.4,2.4,1.1c0.6,0.7,1,1.5,1,2.5c0,0.9-0.4,1.8-1,2.5C133.1,482.6,132.2,483,131.3,483L131.3,483z M135.9,478.9h10
	c0,0.4,0,0.7,0,1.1h-10C136,479.7,136,479.3,135.9,478.9z M150.5,483c-0.9,0-1.8-0.4-2.5-1c-0.7-0.6-1-1.5-1-2.4
	c0-0.9,0.3-1.8,1-2.5c0.6-0.7,1.5-1,2.4-1.1h0c0,0,2.7-0.1,3.4,2.5c0.1,0.5,0.2,1.1,0.1,1.6c-0.1,0.5-0.3,1-0.6,1.5
	c-0.3,0.4-0.7,0.8-1.2,1C151.6,482.9,151.1,483,150.5,483z M157.6,480h-2.4c0-0.4,0-0.7,0-1.1h2c0.1,0,0.2,0,0.3,0.1
	c0.1,0.1,0.1,0.2,0.1,0.3L157.6,480z"/>
<path class="st1" d="M131.3,477.1c-0.5,0-0.9,0.1-1.3,0.4c-0.4,0.3-0.7,0.6-0.9,1.1c-0.2,0.4-0.2,0.9-0.1,1.4
	c0.1,0.5,0.3,0.9,0.7,1.2c0.3,0.3,0.8,0.6,1.2,0.7c0.5,0.1,0.9,0,1.4-0.1c0.4-0.2,0.8-0.5,1.1-0.9c0.3-0.4,0.4-0.9,0.4-1.3
	c0-0.6-0.3-1.2-0.7-1.7C132.6,477.3,132,477.1,131.3,477.1z M131.3,480.7c-0.3,0-0.5-0.1-0.7-0.2c-0.2-0.1-0.4-0.3-0.5-0.6
	s-0.1-0.5-0.1-0.7c0-0.2,0.2-0.5,0.3-0.6c0.2-0.2,0.4-0.3,0.7-0.3c0.2,0,0.5,0,0.7,0.1c0.2,0.1,0.4,0.3,0.6,0.5
	c0.1,0.2,0.2,0.5,0.2,0.7c0,0.3-0.1,0.7-0.4,0.9C132,480.6,131.7,480.7,131.3,480.7z"/>
<path class="st1" d="M150.5,477.1c-0.5,0-0.9,0.1-1.3,0.4c-0.4,0.3-0.7,0.6-0.9,1.1c-0.2,0.4-0.2,0.9-0.1,1.4
	c0.1,0.5,0.3,0.9,0.7,1.2c0.3,0.3,0.8,0.6,1.2,0.7c0.5,0.1,0.9,0,1.4-0.1c0.4-0.2,0.8-0.5,1.1-0.9c0.3-0.4,0.4-0.9,0.4-1.3
	c0-0.6-0.3-1.2-0.7-1.7C151.8,477.3,151.2,477.1,150.5,477.1z M150.5,480.8c-0.3,0-0.5-0.1-0.7-0.2c-0.2-0.1-0.4-0.3-0.5-0.6
	c-0.1-0.2-0.1-0.5-0.1-0.7c0-0.2,0.2-0.5,0.3-0.7c0.2-0.2,0.4-0.3,0.7-0.3c0.2,0,0.5,0,0.7,0.1c0.2,0.1,0.4,0.3,0.6,0.5
	c0.1,0.2,0.2,0.5,0.2,0.7c0,0.3-0.1,0.7-0.4,0.9C151.2,480.6,150.9,480.7,150.5,480.8z"/>
<path class="st1" d="M420.7,467.1l-4.4-1.2l-1.9-5.9c-0.1-0.3-0.3-0.6-0.6-0.8c-0.3-0.2-0.6-0.3-0.9-0.3h-6.1
	c-0.4,0-0.8,0.2-1.1,0.4c-0.3,0.3-0.4,0.7-0.4,1.1v6.7h-19c-0.1,0-0.3,0.1-0.4,0.2c-0.1,0.1-0.2,0.2-0.2,0.4v2.2
	c0,0.1,0.1,0.3,0.2,0.4c0.1,0.1,0.2,0.2,0.4,0.2h0.6v8.9c0,0.4,0.2,0.8,0.4,1.1c0.3,0.3,0.7,0.4,1.1,0.4h0.9
	c0.3,0.9,0.9,1.6,1.7,2.1c0.8,0.5,1.6,0.8,2.6,0.8c0.9,0,1.8-0.3,2.6-0.8c0.8-0.5,1.3-1.2,1.7-2.1H411c0.3,0.9,0.9,1.6,1.7,2.1
	c0.8,0.5,1.6,0.8,2.6,0.8s1.8-0.3,2.6-0.8c0.8-0.5,1.3-1.2,1.7-2.1h2c0.4,0,0.8-0.2,1.1-0.4c0.3-0.3,0.4-0.7,0.4-1.1v-9.3
	c0-0.7-0.2-1.3-0.6-1.9C422,467.7,421.4,467.3,420.7,467.1z M406.4,460.5c0-0.1,0-0.2,0.1-0.3c0.1-0.1,0.2-0.1,0.3-0.1h6.1
	c0.1,0,0.2,0,0.2,0.1s0.1,0.1,0.1,0.2l2,6.2c0,0.1,0.1,0.2,0.1,0.2c0.1,0.1,0.1,0.1,0.2,0.1l4.7,1.3c0.4,0.1,0.8,0.4,1.1,0.7
	c0.3,0.3,0.4,0.8,0.4,1.2h-2.7c-0.1,0-0.1,0-0.2,0c-0.1,0-0.1,0.1-0.2,0.1s-0.1,0.1-0.1,0.2c0,0.1,0,0.1,0,0.2v1.6
	c0,0.6,0.2,1.1,0.6,1.5c0.4,0.4,0.9,0.6,1.5,0.6h1.1v3.2h-2.4c-0.3-0.9-0.9-1.6-1.7-2.1s-1.6-0.8-2.6-0.8c-0.9,0-1.8,0.3-2.6,0.8
	c-0.8,0.5-1.3,1.2-1.7,2.1h-4.5V460.5z M421.9,471.2v2.1h-1.1c-0.3,0-0.5-0.1-0.7-0.3c-0.2-0.2-0.3-0.5-0.3-0.7v-1L421.9,471.2z
	 M386.9,468.3h18.4v1.1h-18.4V468.3z M405.3,470.5v7.1h-7.5c-0.3-0.8-0.9-1.6-1.7-2.1c-0.8-0.5-1.6-0.8-2.6-0.8s-1.8,0.3-2.6,0.8
	c-0.8,0.5-1.3,1.2-1.7,2.1H388v-7.1H405.3z M388.4,479.9c-0.1,0-0.2,0-0.3-0.1c-0.1-0.1-0.1-0.2-0.1-0.3v-0.7h1.1
	c-0.1,0.4-0.1,0.7,0,1.1H388.4z M393.6,482.7c-0.7,0-1.3-0.2-1.9-0.6c-0.6-0.4-1-0.9-1.3-1.5c-0.3-0.6-0.3-1.3-0.2-2
	c0.1-0.7,0.5-1.3,0.9-1.8c0.5-0.5,1.1-0.8,1.8-0.9c0.7-0.1,1.4-0.1,2,0.2c0.6,0.3,1.2,0.7,1.5,1.3c0.4,0.6,0.6,1.2,0.6,1.9
	c0,0.9-0.4,1.8-1,2.4C395.4,482.4,394.5,482.7,393.6,482.7z M398.1,479.9c0-0.4,0-0.7,0-1.1h12.6c0,0.4,0,0.7,0,1.1H398.1z
	 M415.2,482.7c-0.7,0-1.3-0.2-1.9-0.6s-1-0.9-1.3-1.5c-0.3-0.6-0.3-1.3-0.2-2c0.1-0.7,0.5-1.3,0.9-1.8c0.5-0.5,1.1-0.8,1.8-0.9
	c0.7-0.1,1.4-0.1,2,0.2c0.6,0.3,1.2,0.7,1.5,1.3c0.4,0.6,0.6,1.2,0.6,1.9c0,0.9-0.4,1.8-1,2.4C417,482.4,416.1,482.7,415.2,482.7z
	 M421.9,479.5c0,0.1,0,0.2-0.1,0.3c-0.1,0.1-0.2,0.1-0.3,0.1h-1.8c0.1-0.4,0.1-0.7,0-1.1h2.2V479.5z"/>
<path class="st1" d="M408.1,466.9h5.4c0.1,0,0.2,0,0.3-0.1c0.1,0,0.1-0.1,0.2-0.2c0.1-0.1,0.1-0.2,0.1-0.2c0-0.1,0-0.2,0-0.3
	l-1.5-4.6c0-0.1-0.1-0.2-0.2-0.3s-0.2-0.1-0.3-0.1h-3.9c-0.1,0-0.3,0.1-0.4,0.2c-0.1,0.1-0.2,0.2-0.2,0.4v4.6c0,0.1,0.1,0.3,0.2,0.4
	C407.8,466.9,408,466.9,408.1,466.9z M408.7,462.3h2.9l1.2,3.5h-4.1V462.3z"/>
<path class="st1" d="M408.1,471.7c0.1,0,0.1,0,0.2,0c0.1,0,0.1-0.1,0.2-0.1c0.1-0.1,0.1-0.1,0.1-0.2c0-0.1,0-0.1,0-0.2v-2
	c0-0.1-0.1-0.3-0.2-0.4c-0.1-0.1-0.2-0.2-0.4-0.2s-0.3,0.1-0.4,0.2c-0.1,0.1-0.2,0.2-0.2,0.4v2c0,0.1,0.1,0.3,0.2,0.4
	C407.8,471.6,408,471.7,408.1,471.7z"/>
<path class="st1" d="M393.6,477c-0.5,0-0.9,0.1-1.3,0.4c-0.4,0.3-0.7,0.6-0.9,1c-0.2,0.4-0.2,0.9-0.1,1.3c0.1,0.5,0.3,0.9,0.6,1.2
	c0.3,0.3,0.7,0.5,1.2,0.6c0.5,0.1,0.9,0,1.3-0.1c0.4-0.2,0.8-0.5,1-0.9c0.3-0.4,0.4-0.8,0.4-1.3c0-0.6-0.2-1.2-0.7-1.6
	S394.2,477,393.6,477z M393.6,480.5c-0.2,0-0.5-0.1-0.7-0.2c-0.2-0.1-0.4-0.3-0.4-0.5c-0.1-0.2-0.1-0.5-0.1-0.7
	c0-0.2,0.2-0.5,0.3-0.6c0.2-0.2,0.4-0.3,0.6-0.3c0.2,0,0.5,0,0.7,0.1c0.2,0.1,0.4,0.2,0.5,0.4s0.2,0.4,0.2,0.7c0,0.2,0,0.3-0.1,0.5
	s-0.1,0.3-0.3,0.4c-0.1,0.1-0.2,0.2-0.4,0.3S393.7,480.5,393.6,480.5L393.6,480.5z"/>
<path class="st1" d="M415.2,477c-0.5,0-0.9,0.1-1.3,0.4c-0.4,0.3-0.7,0.6-0.9,1c-0.2,0.4-0.2,0.9-0.1,1.3c0.1,0.5,0.3,0.9,0.6,1.2
	c0.3,0.3,0.7,0.5,1.2,0.6c0.5,0.1,0.9,0,1.3-0.1c0.4-0.2,0.8-0.5,1-0.9c0.3-0.4,0.4-0.8,0.4-1.3c0-0.6-0.2-1.2-0.7-1.6
	C416.4,477.2,415.8,477,415.2,477z M415.2,480.5c-0.2,0-0.5-0.1-0.7-0.2c-0.2-0.1-0.4-0.3-0.4-0.5c-0.1-0.2-0.1-0.5-0.1-0.7
	c0-0.2,0.2-0.5,0.3-0.6c0.2-0.2,0.4-0.3,0.6-0.3c0.2,0,0.5,0,0.7,0.1c0.2,0.1,0.4,0.2,0.5,0.4c0.1,0.2,0.2,0.4,0.2,0.7
	c0,0.2,0,0.3-0.1,0.5s-0.2,0.3-0.3,0.4c-0.1,0.1-0.2,0.2-0.4,0.3S415.4,480.5,415.2,480.5L415.2,480.5z"/>
</svg>
